<svg xmlns="http://www.w3.org/2000/svg" xmlns:xlink="http://www.w3.org/1999/xlink" width="500" zoomAndPan="magnify" viewBox="0 0 375 374.999991" height="500" preserveAspectRatio="xMidYMid meet" version="1.0"><defs><filter x="0%" y="0%" width="100%" height="100%" id="dffa88552e"><feColorMatrix values="0 0 0 0 1 0 0 0 0 1 0 0 0 0 1 0 0 0 1 0" color-interpolation-filters="sRGB"/></filter><mask id="4eeae11d53"><g filter="url(#dffa88552e)"><rect x="-37.5" width="450" fill="#000000" y="-37.499999" height="449.999989" fill-opacity="0.28"/></g></mask><clipPath id="6273191e8a"><rect x="0" width="244" y="0" height="257"/></clipPath><mask id="d97d00889f"><g filter="url(#dffa88552e)"><rect x="-37.5" width="450" fill="#000000" y="-37.499999" height="449.999989" fill-opacity="0.1"/></g></mask><clipPath id="c0cf2e3799"><path d="M 1 1 L 121.558594 1 L 121.558594 199 L 1 199 Z M 1 1 " clip-rule="nonzero"/></clipPath><clipPath id="363f4f3e22"><rect x="0" width="122" y="0" height="200"/></clipPath><mask id="4652e5479e"><g filter="url(#dffa88552e)"><rect x="-37.5" width="450" fill="#000000" y="-37.499999" height="449.999989" fill-opacity="0.5"/></g></mask><clipPath id="2f609426c7"><path d="M 1 1 L 123.480469 1 L 123.480469 256 L 1 256 Z M 1 1 " clip-rule="nonzero"/></clipPath><clipPath id="c5780aa4e3"><rect x="0" width="124" y="0" height="257"/></clipPath><mask id="1cb9bad6c4"><g filter="url(#dffa88552e)"><rect x="-37.5" width="450" fill="#000000" y="-37.499999" height="449.999989" fill-opacity="0.21"/></g></mask><clipPath id="fa0928e571"><path d="M 0.0390625 0.0390625 L 105 0.0390625 L 105 121.480469 L 0.0390625 121.480469 Z M 0.0390625 0.0390625 " clip-rule="nonzero"/></clipPath><clipPath id="cb5d23d00c"><rect x="0" width="106" y="0" height="122"/></clipPath><mask id="79fcc20166"><g filter="url(#dffa88552e)"><rect x="-37.5" width="450" fill="#000000" y="-37.499999" height="449.999989" fill-opacity="0.51"/></g></mask><clipPath id="859f74c4da"><rect x="0" width="114" y="0" height="257"/></clipPath><mask id="def89f2033"><g filter="url(#dffa88552e)"><rect x="-37.5" width="450" fill="#000000" y="-37.499999" height="449.999989" fill-opacity="0.42"/></g></mask><clipPath id="1595214f92"><path d="M 0.71875 0.078125 L 167.519531 0.078125 L 167.519531 188 L 0.71875 188 Z M 0.71875 0.078125 " clip-rule="nonzero"/></clipPath><clipPath id="e35670f1b3"><rect x="0" width="168" y="0" height="188"/></clipPath></defs><path fill="#5e17eb" d="M 309.347656 161.261719 L 305.007812 118.390625 C 308.597656 117.476562 311.253906 114.230469 311.253906 110.355469 C 311.253906 105.902344 307.753906 102.28125 303.351562 102.0625 L 300.945312 78.265625 C 303.0625 77.292969 304.488281 75.074219 304.269531 72.546875 C 304.039062 69.835938 301.859375 67.617188 299.164062 67.339844 C 297.730469 67.191406 296.394531 67.570312 295.320312 68.304688 C 289.449219 64.347656 278.203125 57.25 263.480469 50.171875 C 262.34375 49.628906 261.171875 49.078125 259.964844 48.519531 C 260.367188 47.050781 260.414062 45.4375 259.824219 43.730469 C 258.722656 40.539062 255.808594 38.226562 252.4375 38.035156 C 249.191406 37.851562 246.324219 39.539062 244.804688 42.117188 C 226.113281 34.941406 202.824219 28.640625 178.25 28.398438 C 170.128906 28.328125 161.925781 29.121094 153.683594 30.761719 C 152.824219 30.929688 151.964844 31.113281 151.101562 31.300781 C 149.84375 28.3125 146.886719 26.214844 143.445312 26.214844 C 138.855469 26.214844 135.132812 29.9375 135.132812 34.523438 C 135.132812 34.96875 135.179688 35.40625 135.246094 35.832031 C 130.820312 37.386719 126.390625 39.175781 121.96875 41.214844 C 106.457031 48.367188 94.027344 57.085938 85.191406 64.339844 C 83.539062 63.128906 81.425781 62.503906 79.160156 62.804688 C 75.417969 63.300781 72.433594 66.359375 72.027344 70.113281 C 71.488281 75.117188 75.394531 79.347656 80.289062 79.347656 C 82.726562 79.347656 84.910156 78.289062 86.429688 76.617188 L 96.527344 83.332031 C 90.234375 84.804688 83.777344 86.917969 77.195312 89.726562 L 144.339844 128.105469 C 147.257812 129.777344 149.742188 132.113281 151.585938 134.925781 L 177.484375 174.488281 C 179.511719 177.585938 179.433594 181.605469 177.289062 184.617188 L 163.34375 204.191406 L 171.996094 184.546875 C 173.320312 181.539062 172.898438 178.054688 170.898438 175.453125 L 146.882812 144.222656 L 146.5 143.71875 C 143.597656 139.824219 139.457031 137.039062 134.753906 135.828125 L 114.820312 130.679688 L 59.496094 116.382812 C 59.492188 116.378906 59.488281 116.378906 59.488281 116.378906 C 59.488281 116.378906 59.488281 116.378906 59.488281 116.382812 C 59.488281 116.390625 59.488281 116.398438 59.492188 116.40625 C 63.101562 133.609375 70.460938 156.007812 67.148438 168.585938 C 63.832031 181.203125 45.410156 204.457031 35.613281 216.1875 C 32.785156 219.582031 34.308594 224.769531 38.535156 226.085938 C 44.515625 227.949219 52 230.402344 56.199219 232.261719 C 60.453125 234.136719 59.355469 239.308594 57.496094 243.59375 C 55.980469 247.085938 57.976562 251.105469 61.664062 252.046875 L 70.804688 254.398438 L 63.8125 260.546875 C 61.988281 262.15625 62.148438 265.101562 64.191406 266.410156 C 68.398438 269.113281 73.285156 275.339844 69.433594 289.320312 C 63.273438 311.679688 79.039062 311.597656 118.46875 313.472656 C 119.375 313.515625 120.242188 313.585938 121.0625 313.683594 C 154.851562 317.742188 118.472656 367.363281 116.082031 370.5625 L 115.976562 370.707031 C 115.972656 370.714844 115.964844 370.722656 115.960938 370.726562 C 172.828125 334.203125 225.527344 320.519531 275.828125 320.046875 C 275.828125 320.046875 269.859375 307.988281 266.085938 292.761719 C 269.230469 291.710938 271.539062 288.839844 271.746094 285.390625 C 272.027344 280.785156 268.238281 276.667969 263.621094 276.578125 C 262.0625 276.546875 260.601562 276.949219 259.351562 277.667969 L 224.023438 232.851562 C 224.210938 232.65625 224.382812 232.449219 224.546875 232.234375 L 258.011719 250.726562 C 257.464844 252.199219 257.300781 253.855469 257.730469 255.601562 C 258.582031 259.035156 261.582031 261.605469 265.105469 261.886719 C 270.003906 262.28125 274.105469 258.425781 274.105469 253.605469 C 274.105469 250.574219 272.472656 247.929688 270.042969 246.480469 C 273.914062 237.570312 279.316406 226.691406 284.90625 215.964844 C 285.851562 214.15625 286.804688 212.34375 287.75 210.550781 C 288.761719 210.820312 289.882812 210.820312 291.074219 210.285156 C 292.804688 209.503906 294.039062 207.84375 294.164062 205.953125 C 294.277344 204.28125 293.582031 202.777344 292.445312 201.765625 C 297.769531 191.898438 302.691406 183.09375 305.960938 177.296875 C 307.152344 177.757812 308.472656 177.960938 309.859375 177.804688 C 313.90625 177.347656 317.097656 173.925781 317.246094 169.855469 C 317.410156 165.265625 313.847656 161.480469 309.347656 161.261719 Z M 298.5 78.789062 L 300.878906 102.3125 C 299.535156 102.660156 298.316406 103.335938 297.324219 104.25 L 271.820312 83.777344 C 272.121094 83.125 272.296875 82.402344 272.296875 81.636719 C 272.296875 81.496094 272.285156 81.363281 272.277344 81.226562 L 293.296875 75.375 C 294.183594 77.375 296.179688 78.773438 298.5 78.789062 Z M 294.800781 111.996094 L 262.921875 123.601562 C 260.984375 119.089844 257.574219 115.367188 253.296875 113.027344 L 265.839844 86.578125 C 266.265625 86.691406 266.710938 86.761719 267.171875 86.761719 C 268.335938 86.761719 269.40625 86.367188 270.269531 85.714844 L 295.765625 106.183594 C 295.050781 107.414062 294.636719 108.835938 294.636719 110.355469 C 294.636719 110.917969 294.695312 111.464844 294.800781 111.996094 Z M 261.230469 144.058594 L 301.179688 166.59375 C 300.847656 167.476562 300.65625 168.425781 300.640625 169.417969 L 273.394531 173.125 L 265.023438 174.261719 C 264.265625 172.375 262.421875 171.042969 260.269531 171.042969 C 260.035156 171.042969 259.808594 171.0625 259.589844 171.089844 L 252.035156 152.089844 C 254.667969 150.867188 257.011719 149.136719 258.945312 147.019531 C 259.789062 146.105469 260.554688 145.113281 261.230469 144.058594 Z M 258.925781 50.84375 C 275.011719 58.277344 287.273438 65.925781 293.597656 70.152344 C 293.113281 70.96875 292.832031 71.917969 292.808594 72.929688 L 271.472656 78.867188 C 270.5625 77.453125 268.976562 76.519531 267.171875 76.519531 C 266.84375 76.519531 266.519531 76.550781 266.210938 76.613281 L 256.320312 53.398438 C 257.363281 52.75 258.257812 51.875 258.925781 50.84375 Z M 252.324219 54.621094 C 252.910156 54.597656 253.484375 54.507812 254.035156 54.367188 L 263.953125 77.660156 C 262.792969 78.597656 262.050781 80.027344 262.050781 81.636719 C 262.050781 83.105469 262.675781 84.429688 263.667969 85.363281 L 251.050781 111.964844 C 249.5625 111.359375 247.988281 110.914062 246.355469 110.644531 Z M 245.8125 51.910156 C 246.878906 53.082031 248.273438 53.945312 249.851562 54.359375 L 243.890625 110.382812 C 243.527344 110.363281 243.171875 110.355469 242.808594 110.355469 C 237.144531 110.355469 231.984375 112.503906 228.101562 116.03125 L 200.617188 89.011719 C 201.984375 87.527344 202.824219 85.554688 202.824219 83.382812 C 202.824219 82.472656 202.671875 81.601562 202.40625 80.785156 Z M 145.015625 248.992188 C 145.558594 249.191406 146.148438 249.304688 146.757812 249.304688 C 147.976562 249.304688 149.089844 248.875 149.96875 248.167969 L 175.238281 267.269531 C 175.046875 267.71875 174.917969 268.207031 174.863281 268.714844 L 146.421875 272.59375 C 145.742188 270.78125 144.058594 269.453125 142.039062 269.296875 C 141.851562 262.855469 142.78125 256.03125 145.015625 248.992188 Z M 151.84375 243.59375 L 210.242188 230.222656 C 210.566406 231.046875 211.015625 231.8125 211.574219 232.480469 L 182.367188 264.753906 C 181.648438 264.371094 180.828125 264.15625 179.953125 264.15625 C 178.734375 264.15625 177.617188 264.582031 176.738281 265.289062 L 151.472656 246.1875 C 151.734375 245.574219 151.878906 244.894531 151.878906 244.183594 C 151.878906 243.984375 151.867188 243.785156 151.84375 243.59375 Z M 188.984375 318.476562 C 165.953125 316.132812 148.054688 300.640625 143.273438 279.246094 C 145.09375 278.628906 146.453125 277.019531 146.710938 275.070312 L 175.199219 271.179688 C 175.957031 273.066406 177.796875 274.398438 179.953125 274.398438 C 179.976562 274.398438 180 274.394531 180.023438 274.394531 L 190.675781 314.578125 C 189.636719 315.515625 188.980469 316.867188 188.980469 318.371094 C 188.980469 318.410156 188.984375 318.441406 188.984375 318.476562 Z M 182.425781 273.757812 C 184.003906 272.886719 185.074219 271.207031 185.074219 269.273438 C 185.074219 268.21875 184.753906 267.238281 184.210938 266.425781 L 213.433594 234.132812 C 213.828125 234.390625 214.242188 234.621094 214.683594 234.808594 L 194.15625 313.253906 L 194.105469 313.253906 C 193.695312 313.253906 193.308594 313.304688 192.925781 313.394531 Z M 199.210938 318.648438 C 199.214844 318.558594 199.222656 318.464844 199.222656 318.371094 C 199.222656 317.460938 198.984375 316.609375 198.566406 315.867188 L 224.410156 281.164062 C 224.988281 281.390625 225.617188 281.519531 226.273438 281.519531 C 228.15625 281.519531 229.792969 280.503906 230.683594 278.996094 L 255.164062 285.292969 C 255.257812 287.140625 255.9375 288.832031 257.042969 290.167969 C 245.328125 302.035156 229.738281 312.648438 209.507812 317.160156 C 206.015625 317.945312 202.574219 318.433594 199.210938 318.648438 Z M 221.15625 276.394531 C 221.15625 277.667969 221.621094 278.828125 222.386719 279.722656 L 196.828125 314.042969 C 196.738281 313.984375 196.652344 313.929688 196.5625 313.882812 L 217.09375 235.4375 C 217.378906 235.464844 217.667969 235.484375 217.96875 235.484375 L 217.996094 235.484375 L 224.1875 271.722656 C 222.398438 272.523438 221.15625 274.3125 221.15625 276.394531 Z M 217.96875 218.867188 C 216.953125 218.867188 215.984375 219.058594 215.089844 219.390625 L 196.695312 186.082031 C 197.652344 185.148438 198.25 183.847656 198.25 182.40625 C 198.25 181.4375 197.972656 180.53125 197.503906 179.757812 L 228.316406 148.644531 C 230.542969 150.613281 233.175781 152.136719 236.070312 153.070312 L 218.847656 218.914062 C 218.554688 218.882812 218.265625 218.867188 217.96875 218.867188 Z M 168.203125 118.867188 L 180.734375 103.082031 L 190.5625 90.695312 C 191.734375 91.332031 193.082031 91.695312 194.519531 91.695312 C 196.027344 91.695312 197.445312 91.28125 198.664062 90.574219 L 226.359375 117.808594 C 225.914062 118.316406 225.492188 118.84375 225.101562 119.390625 C 223.054688 122.199219 221.667969 125.511719 221.144531 129.105469 L 169.902344 124.628906 C 169.921875 124.398438 169.941406 124.167969 169.941406 123.933594 C 169.941406 122.023438 169.289062 120.269531 168.203125 118.867188 Z M 169.320312 127.074219 L 220.933594 131.582031 C 220.929688 131.800781 220.921875 132.023438 220.921875 132.242188 C 220.921875 134.523438 221.269531 136.71875 221.914062 138.789062 L 205.472656 144.984375 C 204.601562 143.40625 202.925781 142.339844 200.996094 142.339844 C 199.578125 142.339844 198.289062 142.921875 197.363281 143.855469 L 169.285156 127.179688 C 169.296875 127.144531 169.308594 127.105469 169.320312 127.074219 Z M 201.679688 152.53125 C 204.183594 152.199219 206.117188 150.058594 206.117188 147.464844 L 206.117188 147.394531 L 222.796875 141.113281 C 223.742188 143.238281 225.011719 145.1875 226.546875 146.898438 L 195.738281 178.011719 C 195.675781 177.972656 195.617188 177.929688 195.550781 177.898438 Z M 201.269531 78.554688 C 200.09375 76.910156 198.332031 75.710938 196.285156 75.265625 L 197.386719 55.640625 C 199.476562 55.242188 201.109375 53.574219 201.46875 51.46875 L 243.871094 48.203125 C 244 48.773438 244.195312 49.324219 244.433594 49.84375 Z M 151.707031 33.652344 C 152.125 33.5625 152.546875 33.472656 152.96875 33.382812 C 160.972656 31.726562 169.417969 30.789062 178.222656 30.882812 C 201.996094 31.117188 224.710938 37.074219 243.871094 44.460938 C 243.773438 44.871094 243.710938 45.292969 243.679688 45.726562 L 201.28125 48.992188 C 200.597656 46.957031 198.683594 45.488281 196.421875 45.488281 C 194.558594 45.488281 192.933594 46.488281 192.035156 47.980469 L 152.34375 35.933594 L 151.65625 35.722656 C 151.710938 35.328125 151.753906 34.933594 151.753906 34.523438 C 151.753906 34.230469 151.734375 33.9375 151.707031 33.652344 Z M 150.9375 38.09375 L 151.820312 38.363281 L 191.3125 50.355469 C 191.308594 50.441406 191.304688 50.523438 191.304688 50.609375 C 191.304688 52.914062 192.820312 54.855469 194.90625 55.503906 L 193.808594 75.113281 C 191.867188 75.277344 190.117188 76.105469 188.789062 77.375 L 151.390625 40.597656 L 150.167969 39.394531 C 150.464844 38.988281 150.714844 38.554688 150.9375 38.09375 Z M 135.964844 38.128906 C 136.742188 39.742188 138.023438 41.066406 139.609375 41.890625 L 129.171875 72.445312 C 129.03125 72.433594 128.890625 72.421875 128.742188 72.421875 C 126.792969 72.421875 125.09375 73.515625 124.230469 75.125 L 88.582031 70.789062 C 88.53125 69.035156 87.941406 67.425781 86.964844 66.109375 C 97.4375 57.539062 114.503906 45.667969 135.964844 38.128906 Z M 154.847656 119.148438 L 87.808594 74.546875 C 88 74.136719 88.160156 73.703125 88.289062 73.257812 L 123.621094 77.550781 C 123.625 80.375 125.917969 82.667969 128.742188 82.667969 C 129.371094 82.667969 129.972656 82.550781 130.53125 82.335938 L 155.492188 118.351562 C 155.261719 118.601562 155.042969 118.867188 154.847656 119.148438 Z M 157.425781 116.777344 L 132.578125 80.929688 C 133.375 80.027344 133.863281 78.847656 133.863281 77.546875 C 133.863281 75.742188 132.933594 74.160156 131.527344 73.25 L 141.960938 42.695312 C 142.445312 42.777344 142.9375 42.835938 143.445312 42.835938 C 143.574219 42.835938 143.707031 42.820312 143.839844 42.8125 L 158.570312 116.214844 C 158.171875 116.375 157.792969 116.5625 157.425781 116.777344 Z M 160.992188 115.65625 L 146.277344 42.328125 C 147.050781 42.046875 147.773438 41.652344 148.421875 41.164062 L 150.917969 43.617188 L 187.253906 79.347656 C 186.589844 80.546875 186.207031 81.921875 186.207031 83.382812 C 186.207031 85.644531 187.113281 87.691406 188.578125 89.191406 L 178.558594 101.816406 L 166.402344 117.140625 C 165.050781 116.1875 163.410156 115.625 161.628906 115.625 C 161.414062 115.625 161.203125 115.644531 160.992188 115.65625 Z M 166.207031 130.867188 C 166.867188 130.429688 167.464844 129.898438 167.972656 129.292969 L 196.089844 145.996094 C 195.953125 146.460938 195.875 146.953125 195.875 147.464844 C 195.875 149.65625 197.253906 151.519531 199.191406 152.25 L 193.144531 177.289062 L 193.125 177.289062 C 192.710938 177.289062 192.308594 177.34375 191.917969 177.4375 Z M 175.613281 205.210938 C 181.996094 199.527344 186.996094 193.367188 190.746094 186.945312 C 191.457031 187.316406 192.265625 187.53125 193.125 187.53125 C 193.617188 187.53125 194.089844 187.457031 194.546875 187.328125 L 212.910156 220.59375 C 210.9375 222.113281 209.660156 224.492188 209.660156 227.175781 C 209.660156 227.386719 209.671875 227.59375 209.6875 227.800781 L 150.953125 241.246094 C 150.40625 240.472656 149.660156 239.859375 148.785156 239.476562 C 154.136719 228.21875 162.851562 216.589844 175.613281 205.210938 Z M 257.398438 279.210938 C 256.464844 280.207031 255.773438 281.429688 255.421875 282.792969 L 231.390625 276.609375 C 231.390625 276.535156 231.398438 276.472656 231.398438 276.394531 C 231.398438 273.6875 229.296875 271.480469 226.636719 271.296875 L 220.453125 235.105469 C 221.023438 234.925781 221.5625 234.683594 222.074219 234.390625 Z M 222.253906 220.066406 C 221.929688 219.875 221.597656 219.691406 221.25 219.542969 L 238.480469 153.699219 C 239.878906 153.984375 241.328125 154.132812 242.808594 154.132812 C 245.226562 154.132812 247.554688 153.734375 249.726562 153.011719 L 257.28125 172.007812 C 255.988281 172.9375 255.144531 174.449219 255.144531 176.164062 C 255.144531 177.296875 255.519531 178.34375 256.144531 179.1875 Z M 259.214844 248.554688 L 225.753906 230.0625 C 226.085938 229.160156 226.273438 228.195312 226.273438 227.175781 C 226.273438 225.054688 225.472656 223.121094 224.164062 221.652344 L 258.054688 180.78125 C 258.433594 180.957031 258.839844 181.101562 259.265625 181.1875 L 263.957031 245.511719 C 262.039062 245.945312 260.378906 247.042969 259.214844 248.554688 Z M 284.226562 211.910156 C 278.074219 223.617188 271.996094 235.75 267.742188 245.539062 C 267.320312 245.4375 266.886719 245.367188 266.441406 245.335938 L 261.746094 181.066406 C 262.136719 180.949219 262.503906 180.785156 262.851562 180.582031 L 281.792969 199.953125 L 284.695312 202.921875 C 284.21875 203.707031 283.9375 204.621094 283.9375 205.605469 C 283.9375 207.089844 284.570312 208.417969 285.574219 209.355469 C 285.125 210.203125 284.671875 211.058594 284.226562 211.910156 Z M 290.238281 200.621094 C 289.859375 200.535156 289.464844 200.480469 289.054688 200.480469 C 288.113281 200.480469 287.230469 200.738281 286.476562 201.1875 L 280.632812 195.210938 L 264.625 178.839844 C 265.011719 178.210938 265.269531 177.496094 265.355469 176.726562 L 274.339844 175.503906 L 300.972656 171.882812 C 301.460938 173.558594 302.464844 175.011719 303.804688 176.070312 C 300.523438 181.882812 295.585938 190.71875 290.238281 200.621094 Z M 302.40625 164.433594 L 262.457031 141.898438 C 263.886719 138.984375 264.699219 135.710938 264.699219 132.242188 C 264.699219 130.050781 264.371094 127.929688 263.769531 125.9375 L 295.648438 114.332031 C 297 116.800781 299.5625 118.496094 302.535156 118.640625 L 306.875 161.507812 C 305.078125 161.96875 303.515625 163.011719 302.40625 164.433594 Z M 302.40625 164.433594 " fill-opacity="1" fill-rule="nonzero"/><path fill="#ff66c4" d="M 172.722656 75.910156 C 172.722656 76.261719 172.65625 76.597656 172.519531 76.921875 C 172.386719 77.246094 172.195312 77.53125 171.949219 77.78125 C 171.699219 78.027344 171.414062 78.21875 171.089844 78.355469 C 170.765625 78.488281 170.425781 78.554688 170.078125 78.554688 C 169.726562 78.554688 169.386719 78.488281 169.0625 78.355469 C 168.738281 78.21875 168.453125 78.027344 168.207031 77.78125 C 167.957031 77.53125 167.765625 77.246094 167.632812 76.921875 C 167.496094 76.597656 167.429688 76.261719 167.429688 75.910156 C 167.429688 75.558594 167.496094 75.222656 167.632812 74.898438 C 167.765625 74.574219 167.957031 74.285156 168.207031 74.039062 C 168.453125 73.789062 168.738281 73.597656 169.0625 73.464844 C 169.386719 73.332031 169.726562 73.261719 170.078125 73.261719 C 170.425781 73.261719 170.765625 73.332031 171.089844 73.464844 C 171.414062 73.597656 171.699219 73.789062 171.949219 74.039062 C 172.195312 74.285156 172.386719 74.574219 172.519531 74.898438 C 172.65625 75.222656 172.722656 75.558594 172.722656 75.910156 Z M 172.722656 75.910156 " fill-opacity="1" fill-rule="nonzero"/><path fill="#ff66c4" d="M 188.582031 38.695312 C 188.582031 39.085938 188.507812 39.460938 188.359375 39.820312 C 188.210938 40.183594 187.996094 40.5 187.722656 40.777344 C 187.445312 41.050781 187.125 41.265625 186.765625 41.414062 C 186.40625 41.5625 186.03125 41.636719 185.640625 41.636719 C 185.25 41.636719 184.875 41.5625 184.515625 41.414062 C 184.152344 41.265625 183.835938 41.050781 183.558594 40.777344 C 183.285156 40.5 183.070312 40.183594 182.921875 39.820312 C 182.773438 39.460938 182.699219 39.085938 182.699219 38.695312 C 182.699219 38.304688 182.773438 37.929688 182.921875 37.570312 C 183.070312 37.210938 183.285156 36.890625 183.558594 36.617188 C 183.835938 36.339844 184.152344 36.128906 184.515625 35.976562 C 184.875 35.828125 185.25 35.753906 185.640625 35.753906 C 186.03125 35.753906 186.40625 35.828125 186.765625 35.976562 C 187.125 36.128906 187.445312 36.339844 187.722656 36.617188 C 187.996094 36.890625 188.210938 37.210938 188.359375 37.570312 C 188.507812 37.929688 188.582031 38.304688 188.582031 38.695312 Z M 188.582031 38.695312 " fill-opacity="1" fill-rule="nonzero"/><path fill="#ff66c4" d="M 243.871094 14.835938 C 243.871094 15.363281 243.820312 15.886719 243.714844 16.402344 C 243.613281 16.921875 243.460938 17.421875 243.257812 17.910156 C 243.058594 18.398438 242.808594 18.859375 242.515625 19.300781 C 242.222656 19.738281 241.890625 20.144531 241.515625 20.515625 C 241.144531 20.890625 240.738281 21.222656 240.300781 21.515625 C 239.863281 21.808594 239.398438 22.054688 238.910156 22.257812 C 238.425781 22.460938 237.921875 22.613281 237.40625 22.714844 C 236.886719 22.816406 236.363281 22.871094 235.835938 22.871094 C 235.308594 22.871094 234.789062 22.816406 234.269531 22.714844 C 233.753906 22.613281 233.25 22.460938 232.761719 22.257812 C 232.277344 22.054688 231.8125 21.808594 231.375 21.515625 C 230.9375 21.222656 230.53125 20.890625 230.15625 20.515625 C 229.785156 20.144531 229.449219 19.738281 229.15625 19.300781 C 228.863281 18.859375 228.617188 18.398438 228.414062 17.910156 C 228.214844 17.421875 228.0625 16.921875 227.957031 16.402344 C 227.855469 15.886719 227.804688 15.363281 227.804688 14.835938 C 227.804688 14.308594 227.855469 13.785156 227.957031 13.269531 C 228.0625 12.75 228.214844 12.25 228.414062 11.761719 C 228.617188 11.273438 228.863281 10.8125 229.15625 10.375 C 229.449219 9.933594 229.785156 9.527344 230.15625 9.15625 C 230.53125 8.78125 230.9375 8.449219 231.375 8.15625 C 231.8125 7.863281 232.277344 7.617188 232.761719 7.414062 C 233.25 7.214844 233.753906 7.058594 234.269531 6.957031 C 234.789062 6.855469 235.308594 6.804688 235.835938 6.804688 C 236.363281 6.804688 236.886719 6.855469 237.40625 6.957031 C 237.921875 7.058594 238.425781 7.214844 238.910156 7.414062 C 239.398438 7.617188 239.863281 7.863281 240.300781 8.15625 C 240.738281 8.449219 241.144531 8.78125 241.515625 9.15625 C 241.890625 9.527344 242.222656 9.933594 242.515625 10.375 C 242.808594 10.8125 243.058594 11.273438 243.257812 11.761719 C 243.460938 12.25 243.613281 12.75 243.714844 13.269531 C 243.820312 13.785156 243.871094 14.308594 243.871094 14.835938 Z M 243.871094 14.835938 " fill-opacity="1" fill-rule="nonzero"/><path fill="#ff66c4" d="M 339.558594 69.089844 C 339.558594 69.417969 339.496094 69.730469 339.371094 70.03125 C 339.246094 70.332031 339.070312 70.597656 338.839844 70.828125 C 338.609375 71.058594 338.34375 71.234375 338.042969 71.359375 C 337.742188 71.484375 337.429688 71.546875 337.105469 71.546875 C 336.777344 71.546875 336.464844 71.484375 336.164062 71.359375 C 335.863281 71.234375 335.597656 71.058594 335.367188 70.828125 C 335.136719 70.597656 334.960938 70.332031 334.835938 70.03125 C 334.710938 69.730469 334.648438 69.417969 334.648438 69.089844 C 334.648438 68.765625 334.710938 68.453125 334.835938 68.152344 C 334.960938 67.851562 335.136719 67.585938 335.367188 67.355469 C 335.597656 67.125 335.863281 66.949219 336.164062 66.824219 C 336.464844 66.699219 336.777344 66.636719 337.105469 66.636719 C 337.429688 66.636719 337.742188 66.699219 338.042969 66.824219 C 338.34375 66.949219 338.609375 67.125 338.839844 67.355469 C 339.070312 67.585938 339.246094 67.851562 339.371094 68.152344 C 339.496094 68.453125 339.558594 68.765625 339.558594 69.089844 Z M 339.558594 69.089844 " fill-opacity="1" fill-rule="nonzero"/><path fill="#ff66c4" d="M 327.175781 107.605469 C 327.175781 107.84375 327.128906 108.070312 327.039062 108.289062 C 326.949219 108.511719 326.816406 108.703125 326.648438 108.871094 C 326.480469 109.039062 326.289062 109.171875 326.070312 109.261719 C 325.847656 109.351562 325.621094 109.398438 325.382812 109.398438 C 325.144531 109.398438 324.917969 109.351562 324.695312 109.261719 C 324.476562 109.171875 324.28125 109.039062 324.113281 108.871094 C 323.945312 108.703125 323.816406 108.511719 323.726562 108.289062 C 323.636719 108.070312 323.589844 107.84375 323.589844 107.605469 C 323.589844 107.367188 323.636719 107.140625 323.726562 106.917969 C 323.816406 106.699219 323.945312 106.503906 324.113281 106.335938 C 324.28125 106.167969 324.476562 106.039062 324.695312 105.949219 C 324.917969 105.859375 325.144531 105.8125 325.382812 105.8125 C 325.621094 105.8125 325.847656 105.859375 326.070312 105.949219 C 326.289062 106.039062 326.480469 106.167969 326.648438 106.335938 C 326.816406 106.503906 326.949219 106.699219 327.039062 106.917969 C 327.128906 107.140625 327.175781 107.367188 327.175781 107.605469 Z M 327.175781 107.605469 " fill-opacity="1" fill-rule="nonzero"/><path fill="#ff66c4" d="M 289.609375 35.757812 C 289.609375 36.191406 289.527344 36.605469 289.363281 37.003906 C 289.195312 37.402344 288.960938 37.757812 288.65625 38.0625 C 288.351562 38.367188 288 38.601562 287.597656 38.765625 C 287.199219 38.933594 286.785156 39.015625 286.351562 39.015625 C 285.921875 39.015625 285.507812 38.933594 285.105469 38.765625 C 284.707031 38.601562 284.355469 38.367188 284.050781 38.0625 C 283.746094 37.757812 283.511719 37.402344 283.34375 37.003906 C 283.179688 36.605469 283.097656 36.191406 283.097656 35.757812 C 283.097656 35.328125 283.179688 34.910156 283.34375 34.511719 C 283.511719 34.113281 283.746094 33.761719 284.050781 33.457031 C 284.355469 33.152344 284.707031 32.914062 285.105469 32.75 C 285.507812 32.585938 285.921875 32.503906 286.351562 32.503906 C 286.785156 32.503906 287.199219 32.585938 287.597656 32.75 C 288 32.914062 288.351562 33.152344 288.65625 33.457031 C 288.960938 33.761719 289.195312 34.113281 289.363281 34.511719 C 289.527344 34.910156 289.609375 35.328125 289.609375 35.757812 Z M 289.609375 35.757812 " fill-opacity="1" fill-rule="nonzero"/><path fill="#ff66c4" d="M 332.472656 144.0625 C 332.472656 144.367188 332.441406 144.667969 332.382812 144.96875 C 332.324219 145.265625 332.234375 145.554688 332.121094 145.835938 C 332.003906 146.117188 331.859375 146.386719 331.691406 146.640625 C 331.523438 146.890625 331.328125 147.125 331.113281 147.339844 C 330.898438 147.554688 330.664062 147.75 330.410156 147.917969 C 330.160156 148.085938 329.890625 148.230469 329.609375 148.347656 C 329.328125 148.460938 329.039062 148.550781 328.742188 148.609375 C 328.441406 148.667969 328.140625 148.699219 327.835938 148.699219 C 327.53125 148.699219 327.230469 148.667969 326.933594 148.609375 C 326.632812 148.550781 326.34375 148.460938 326.0625 148.347656 C 325.78125 148.230469 325.515625 148.085938 325.261719 147.917969 C 325.007812 147.75 324.773438 147.554688 324.558594 147.339844 C 324.34375 147.125 324.152344 146.890625 323.980469 146.640625 C 323.8125 146.386719 323.671875 146.117188 323.554688 145.835938 C 323.4375 145.554688 323.347656 145.265625 323.289062 144.96875 C 323.230469 144.667969 323.199219 144.367188 323.199219 144.0625 C 323.199219 143.757812 323.230469 143.457031 323.289062 143.160156 C 323.347656 142.859375 323.4375 142.570312 323.554688 142.289062 C 323.671875 142.007812 323.8125 141.742188 323.980469 141.488281 C 324.152344 141.234375 324.34375 141 324.558594 140.785156 C 324.773438 140.570312 325.007812 140.378906 325.261719 140.207031 C 325.515625 140.039062 325.78125 139.898438 326.0625 139.78125 C 326.34375 139.664062 326.632812 139.574219 326.933594 139.515625 C 327.230469 139.457031 327.53125 139.425781 327.835938 139.425781 C 328.140625 139.425781 328.441406 139.457031 328.742188 139.515625 C 329.039062 139.574219 329.328125 139.664062 329.609375 139.78125 C 329.890625 139.898438 330.160156 140.039062 330.410156 140.207031 C 330.664062 140.378906 330.898438 140.570312 331.113281 140.785156 C 331.328125 141 331.523438 141.234375 331.691406 141.488281 C 331.859375 141.742188 332.003906 142.007812 332.121094 142.289062 C 332.234375 142.570312 332.324219 142.859375 332.382812 143.160156 C 332.441406 143.457031 332.472656 143.757812 332.472656 144.0625 Z M 332.472656 144.0625 " fill-opacity="1" fill-rule="nonzero"/><path fill="#ff66c4" d="M 303.804688 245.886719 C 303.804688 246.152344 303.777344 246.414062 303.726562 246.671875 C 303.675781 246.929688 303.597656 247.179688 303.496094 247.425781 C 303.398438 247.667969 303.273438 247.898438 303.125 248.121094 C 302.980469 248.339844 302.8125 248.542969 302.625 248.726562 C 302.441406 248.914062 302.238281 249.082031 302.019531 249.226562 C 301.800781 249.375 301.566406 249.496094 301.324219 249.597656 C 301.082031 249.699219 300.828125 249.777344 300.570312 249.828125 C 300.3125 249.878906 300.050781 249.90625 299.785156 249.90625 C 299.523438 249.90625 299.261719 249.878906 299.003906 249.828125 C 298.746094 249.777344 298.492188 249.699219 298.25 249.597656 C 298.007812 249.496094 297.773438 249.375 297.554688 249.226562 C 297.335938 249.082031 297.132812 248.914062 296.945312 248.726562 C 296.761719 248.542969 296.59375 248.339844 296.445312 248.121094 C 296.300781 247.898438 296.175781 247.667969 296.074219 247.425781 C 295.976562 247.179688 295.898438 246.929688 295.847656 246.671875 C 295.796875 246.414062 295.769531 246.152344 295.769531 245.886719 C 295.769531 245.625 295.796875 245.363281 295.847656 245.105469 C 295.898438 244.84375 295.976562 244.59375 296.074219 244.351562 C 296.175781 244.105469 296.300781 243.875 296.445312 243.65625 C 296.59375 243.4375 296.761719 243.234375 296.945312 243.046875 C 297.132812 242.859375 297.335938 242.695312 297.554688 242.546875 C 297.773438 242.402344 298.007812 242.277344 298.25 242.175781 C 298.492188 242.078125 298.746094 242 299.003906 241.949219 C 299.261719 241.898438 299.523438 241.871094 299.785156 241.871094 C 300.050781 241.871094 300.3125 241.898438 300.570312 241.949219 C 300.828125 242 301.082031 242.078125 301.324219 242.175781 C 301.566406 242.277344 301.800781 242.402344 302.019531 242.546875 C 302.238281 242.695312 302.441406 242.859375 302.625 243.046875 C 302.8125 243.234375 302.980469 243.4375 303.125 243.65625 C 303.273438 243.875 303.398438 244.105469 303.496094 244.351562 C 303.597656 244.59375 303.675781 244.84375 303.726562 245.105469 C 303.777344 245.363281 303.804688 245.625 303.804688 245.886719 Z M 303.804688 245.886719 " fill-opacity="1" fill-rule="nonzero"/><path fill="#ff66c4" d="M 244.4375 173.5625 C 244.4375 173.90625 244.371094 174.234375 244.242188 174.550781 C 244.109375 174.867188 243.921875 175.148438 243.679688 175.390625 C 243.4375 175.632812 243.160156 175.820312 242.84375 175.953125 C 242.523438 176.082031 242.195312 176.148438 241.851562 176.148438 C 241.507812 176.148438 241.179688 176.082031 240.863281 175.953125 C 240.546875 175.820312 240.265625 175.632812 240.023438 175.390625 C 239.78125 175.148438 239.59375 174.867188 239.464844 174.550781 C 239.332031 174.234375 239.265625 173.90625 239.265625 173.5625 C 239.265625 173.21875 239.332031 172.890625 239.464844 172.574219 C 239.59375 172.257812 239.78125 171.976562 240.023438 171.734375 C 240.265625 171.492188 240.546875 171.304688 240.863281 171.175781 C 241.179688 171.042969 241.507812 170.976562 241.851562 170.976562 C 242.195312 170.976562 242.523438 171.042969 242.84375 171.175781 C 243.160156 171.304688 243.4375 171.492188 243.679688 171.734375 C 243.921875 171.976562 244.109375 172.257812 244.242188 172.574219 C 244.371094 172.890625 244.4375 173.21875 244.4375 173.5625 Z M 244.4375 173.5625 " fill-opacity="1" fill-rule="nonzero"/><path fill="#ff66c4" d="M 253.296875 214.785156 C 253.296875 215.011719 253.253906 215.230469 253.164062 215.441406 C 253.078125 215.652344 252.953125 215.839844 252.792969 216 C 252.632812 216.164062 252.445312 216.285156 252.234375 216.375 C 252.023438 216.460938 251.804688 216.503906 251.574219 216.503906 C 251.347656 216.503906 251.125 216.460938 250.914062 216.375 C 250.703125 216.285156 250.519531 216.164062 250.355469 216 C 250.195312 215.839844 250.070312 215.652344 249.984375 215.441406 C 249.894531 215.230469 249.851562 215.011719 249.851562 214.785156 C 249.851562 214.554688 249.894531 214.335938 249.984375 214.125 C 250.070312 213.914062 250.195312 213.726562 250.355469 213.566406 C 250.519531 213.40625 250.703125 213.28125 250.914062 213.191406 C 251.125 213.105469 251.347656 213.0625 251.574219 213.0625 C 251.804688 213.0625 252.023438 213.105469 252.234375 213.191406 C 252.445312 213.28125 252.632812 213.40625 252.792969 213.566406 C 252.953125 213.726562 253.078125 213.914062 253.164062 214.125 C 253.253906 214.335938 253.296875 214.554688 253.296875 214.785156 Z M 253.296875 214.785156 " fill-opacity="1" fill-rule="nonzero"/><path fill="#ff66c4" d="M 188.582031 216.003906 C 188.582031 216.394531 188.507812 216.769531 188.359375 217.128906 C 188.210938 217.488281 187.996094 217.808594 187.722656 218.082031 C 187.445312 218.359375 187.125 218.570312 186.765625 218.722656 C 186.40625 218.871094 186.03125 218.945312 185.640625 218.945312 C 185.25 218.945312 184.875 218.871094 184.515625 218.722656 C 184.152344 218.570312 183.835938 218.359375 183.558594 218.082031 C 183.285156 217.808594 183.070312 217.488281 182.921875 217.128906 C 182.773438 216.769531 182.699219 216.394531 182.699219 216.003906 C 182.699219 215.613281 182.773438 215.238281 182.921875 214.878906 C 183.070312 214.515625 183.285156 214.199219 183.558594 213.921875 C 183.835938 213.648438 184.152344 213.433594 184.515625 213.285156 C 184.875 213.136719 185.25 213.0625 185.640625 213.0625 C 186.03125 213.0625 186.40625 213.136719 186.765625 213.285156 C 187.125 213.433594 187.445312 213.648438 187.722656 213.921875 C 187.996094 214.199219 188.210938 214.515625 188.359375 214.878906 C 188.507812 215.238281 188.582031 215.613281 188.582031 216.003906 Z M 188.582031 216.003906 " fill-opacity="1" fill-rule="nonzero"/><path fill="#ff66c4" d="M 236.070312 83.871094 C 236.070312 84.144531 236.046875 84.414062 235.992188 84.679688 C 235.9375 84.945312 235.859375 85.203125 235.757812 85.453125 C 235.652344 85.703125 235.527344 85.941406 235.375 86.167969 C 235.222656 86.394531 235.054688 86.601562 234.859375 86.796875 C 234.667969 86.988281 234.460938 87.160156 234.234375 87.308594 C 234.007812 87.460938 233.769531 87.585938 233.519531 87.691406 C 233.269531 87.796875 233.011719 87.875 232.746094 87.925781 C 232.476562 87.980469 232.210938 88.007812 231.9375 88.007812 C 231.667969 88.007812 231.398438 87.980469 231.132812 87.925781 C 230.867188 87.875 230.605469 87.796875 230.355469 87.691406 C 230.105469 87.585938 229.867188 87.460938 229.640625 87.308594 C 229.414062 87.160156 229.207031 86.988281 229.015625 86.796875 C 228.824219 86.601562 228.652344 86.394531 228.5 86.167969 C 228.351562 85.941406 228.222656 85.703125 228.117188 85.453125 C 228.015625 85.203125 227.9375 84.945312 227.882812 84.679688 C 227.832031 84.414062 227.804688 84.144531 227.804688 83.871094 C 227.804688 83.601562 227.832031 83.332031 227.882812 83.066406 C 227.9375 82.800781 228.015625 82.539062 228.117188 82.289062 C 228.222656 82.039062 228.351562 81.800781 228.5 81.574219 C 228.652344 81.351562 228.824219 81.140625 229.015625 80.949219 C 229.207031 80.757812 229.414062 80.585938 229.640625 80.433594 C 229.867188 80.285156 230.105469 80.15625 230.355469 80.054688 C 230.605469 79.949219 230.867188 79.871094 231.132812 79.816406 C 231.398438 79.765625 231.667969 79.738281 231.9375 79.738281 C 232.210938 79.738281 232.476562 79.765625 232.746094 79.816406 C 233.011719 79.871094 233.269531 79.949219 233.519531 80.054688 C 233.769531 80.15625 234.007812 80.285156 234.234375 80.433594 C 234.460938 80.585938 234.667969 80.757812 234.859375 80.949219 C 235.054688 81.140625 235.222656 81.351562 235.375 81.574219 C 235.527344 81.800781 235.652344 82.039062 235.757812 82.289062 C 235.859375 82.539062 235.9375 82.800781 235.992188 83.066406 C 236.046875 83.332031 236.070312 83.601562 236.070312 83.871094 Z M 236.070312 83.871094 " fill-opacity="1" fill-rule="nonzero"/><path fill="#ff66c4" d="M 332.867188 26.214844 C 332.867188 26.589844 332.828125 26.957031 332.757812 27.324219 C 332.683594 27.691406 332.578125 28.046875 332.433594 28.394531 C 332.289062 28.738281 332.113281 29.066406 331.90625 29.375 C 331.699219 29.6875 331.464844 29.976562 331.199219 30.238281 C 330.933594 30.503906 330.648438 30.738281 330.335938 30.945312 C 330.027344 31.15625 329.699219 31.332031 329.351562 31.472656 C 329.007812 31.617188 328.652344 31.722656 328.285156 31.796875 C 327.917969 31.871094 327.546875 31.90625 327.175781 31.90625 C 326.800781 31.90625 326.429688 31.871094 326.066406 31.796875 C 325.699219 31.722656 325.34375 31.617188 324.996094 31.472656 C 324.652344 31.328125 324.324219 31.15625 324.011719 30.945312 C 323.703125 30.738281 323.414062 30.503906 323.148438 30.238281 C 322.886719 29.976562 322.648438 29.6875 322.441406 29.375 C 322.234375 29.066406 322.058594 28.738281 321.917969 28.394531 C 321.773438 28.046875 321.664062 27.691406 321.59375 27.324219 C 321.519531 26.957031 321.484375 26.589844 321.484375 26.214844 C 321.484375 25.839844 321.519531 25.472656 321.59375 25.105469 C 321.664062 24.738281 321.773438 24.382812 321.917969 24.035156 C 322.058594 23.691406 322.234375 23.363281 322.441406 23.050781 C 322.648438 22.742188 322.886719 22.453125 323.148438 22.191406 C 323.414062 21.925781 323.703125 21.691406 324.011719 21.480469 C 324.324219 21.273438 324.652344 21.097656 324.996094 20.957031 C 325.34375 20.8125 325.699219 20.707031 326.066406 20.632812 C 326.429688 20.558594 326.800781 20.523438 327.175781 20.523438 C 327.546875 20.523438 327.917969 20.558594 328.285156 20.632812 C 328.652344 20.707031 329.007812 20.8125 329.351562 20.957031 C 329.699219 21.097656 330.027344 21.273438 330.335938 21.480469 C 330.648438 21.691406 330.933594 21.925781 331.199219 22.191406 C 331.464844 22.453125 331.699219 22.742188 331.90625 23.050781 C 332.113281 23.363281 332.289062 23.691406 332.433594 24.035156 C 332.578125 24.382812 332.683594 24.738281 332.757812 25.105469 C 332.828125 25.472656 332.867188 25.839844 332.867188 26.214844 Z M 332.867188 26.214844 " fill-opacity="1" fill-rule="nonzero"/><g mask="url(#4eeae11d53)"><g transform="matrix(1, 0, 0, 1, 33, 115)"><g clip-path="url(#6273191e8a)"><path fill="#ff66c4" d="M 83.082031 255.5625 C 85.472656 252.363281 121.851562 202.742188 88.0625 198.683594 C 87.242188 198.585938 86.371094 198.515625 85.46875 198.472656 C 46.039062 196.597656 30.273438 196.679688 36.433594 174.320312 C 40.285156 160.339844 35.398438 154.113281 31.191406 151.410156 C 29.148438 150.101562 28.988281 147.15625 30.8125 145.546875 L 37.804688 139.398438 L 28.664062 137.046875 C 24.976562 136.105469 22.980469 132.085938 24.496094 128.59375 C 26.355469 124.308594 27.453125 119.136719 23.199219 117.261719 C 19 115.402344 11.515625 112.949219 5.535156 111.085938 C 1.308594 109.769531 -0.214844 104.582031 2.613281 101.1875 C 12.410156 89.457031 30.832031 66.203125 34.148438 53.585938 C 37.460938 41.007812 30.101562 18.609375 26.492188 1.40625 C 26.488281 1.398438 26.488281 1.390625 26.488281 1.382812 C 26.488281 1.378906 26.488281 1.378906 26.488281 1.378906 C 26.488281 1.378906 26.492188 1.378906 26.496094 1.382812 L 81.820312 15.679688 L 101.753906 20.828125 C 106.457031 22.039062 110.597656 24.824219 113.5 28.71875 L 113.882812 29.222656 L 137.898438 60.453125 C 139.898438 63.054688 140.320312 66.539062 138.996094 69.546875 L 130.34375 89.191406 C 130.34375 89.191406 52.386719 165.84375 109.015625 195.660156 C 165.648438 225.476562 187.066406 196.546875 242.828125 205.046875 C 192.527344 205.523438 139.824219 219.203125 82.960938 255.726562 C 82.964844 255.722656 82.972656 255.714844 82.976562 255.707031 Z M 83.082031 255.5625 " fill-opacity="1" fill-rule="nonzero"/></g></g></g><g mask="url(#d97d00889f)"><g transform="matrix(1, 0, 0, 1, 33, 115)"><g clip-path="url(#363f4f3e22)"><g clip-path="url(#c0cf2e3799)"><path fill="#000000" d="M 104.535156 115.222656 C 80.539062 161.195312 82.65625 186.152344 88.0625 198.683594 C 87.242188 198.585938 86.371094 198.515625 85.46875 198.472656 C 46.039062 196.597656 30.273438 196.679688 36.433594 174.320312 C 40.285156 160.339844 35.398438 154.113281 31.191406 151.410156 C 29.148438 150.101562 28.988281 147.15625 30.8125 145.546875 L 37.804688 139.398438 L 28.664062 137.046875 C 24.976562 136.105469 22.980469 132.085938 24.496094 128.59375 C 26.355469 124.308594 27.453125 119.136719 23.199219 117.261719 C 19 115.402344 11.515625 112.949219 5.535156 111.085938 C 1.308594 109.769531 -0.214844 104.582031 2.613281 101.1875 C 12.410156 89.457031 30.832031 66.203125 34.148438 53.585938 C 37.460938 41.007812 30.101562 18.609375 26.492188 1.40625 C 26.488281 1.398438 26.488281 1.390625 26.488281 1.382812 C 26.488281 1.378906 26.488281 1.378906 26.488281 1.378906 C 26.488281 1.378906 26.492188 1.378906 26.496094 1.382812 L 81.820312 15.679688 L 101.753906 20.828125 C 106.457031 22.039062 110.597656 24.824219 113.5 28.71875 L 113.882812 29.222656 C 122.320312 44.085938 127.574219 71.078125 104.535156 115.222656 Z M 104.535156 115.222656 " fill-opacity="1" fill-rule="nonzero"/></g></g></g></g><g mask="url(#4652e5479e)"><g transform="matrix(1, 0, 0, 1, 33, 115)"><g clip-path="url(#c5780aa4e3)"><g clip-path="url(#2f609426c7)"><path fill="#ff66c4" d="M 83.082031 255.5625 C 85.527344 252.285156 123.644531 200.300781 85.46875 198.472656 C 46.039062 196.597656 30.273438 196.679688 36.433594 174.320312 C 40.285156 160.339844 35.398438 154.113281 31.191406 151.410156 C 29.148438 150.101562 28.988281 147.15625 30.8125 145.546875 L 37.804688 139.398438 L 28.664062 137.046875 C 24.976562 136.105469 22.980469 132.085938 24.496094 128.59375 C 26.355469 124.308594 27.453125 119.140625 23.199219 117.261719 C 19 115.402344 11.515625 112.949219 5.535156 111.085938 C 1.308594 109.769531 -0.214844 104.582031 2.613281 101.1875 C 12.410156 89.457031 30.832031 66.203125 34.148438 53.585938 C 37.460938 41.007812 30.101562 18.609375 26.492188 1.40625 C 26.488281 1.398438 26.488281 1.390625 26.488281 1.382812 C 26.488281 1.378906 26.488281 1.378906 26.488281 1.378906 C 26.488281 1.378906 26.492188 1.378906 26.496094 1.382812 L 81.820312 15.679688 L 89.019531 26.707031 C 102.199219 46.894531 103.785156 72.53125 93.191406 94.1875 L 81.140625 118.820312 C 67.074219 147.578125 81.035156 182.183594 111.113281 193.132812 C 124.082031 197.855469 127.453125 214.632812 117.308594 223.996094 Z M 83.082031 255.5625 " fill-opacity="1" fill-rule="nonzero"/></g></g></g></g><g mask="url(#1cb9bad6c4)"><g transform="matrix(1, 0, 0, 1, 77, 83)"><g clip-path="url(#cb5d23d00c)"><g clip-path="url(#fa0928e571)"><path fill="#000000" d="M 100.289062 101.617188 C 102.433594 98.605469 102.511719 94.585938 100.484375 91.488281 L 74.585938 51.925781 C 72.742188 49.113281 70.257812 46.777344 67.339844 45.105469 L 0.195312 6.726562 C 6.777344 3.917969 13.234375 1.804688 19.527344 0.332031 L 77.195312 42.207031 C 78.882812 43.429688 80.261719 45.035156 81.222656 46.886719 L 103.296875 89.492188 C 105.875 94.472656 105.089844 100.527344 101.320312 104.679688 L 86.34375 121.1875 Z M 100.289062 101.617188 " fill-opacity="1" fill-rule="nonzero"/></g></g></g></g><path fill="#ff66c4" d="M 177.289062 184.617188 C 179.433594 181.605469 179.511719 177.585938 177.484375 174.488281 L 151.585938 134.925781 C 149.742188 132.113281 147.257812 129.777344 144.339844 128.105469 L 77.195312 89.726562 C 83.777344 86.917969 90.234375 84.804688 96.527344 83.332031 L 154.195312 125.207031 C 155.882812 126.429688 157.261719 128.035156 158.222656 129.886719 L 180.296875 172.492188 C 182.875 177.472656 182.089844 183.527344 178.320312 187.679688 L 163.34375 204.1875 Z M 177.289062 184.617188 " fill-opacity="1" fill-rule="nonzero"/><g mask="url(#79fcc20166)"><g transform="matrix(1, 0, 0, 1, 33, 115)"><g clip-path="url(#859f74c4da)"><path fill="#ff66c4" d="M 112.917969 214.046875 C 112.917969 218.449219 111.410156 222.910156 108.207031 226.601562 L 83.082031 255.5625 C 85.179688 252.75 113.546875 214.070312 97.429688 201.996094 C 96.460938 201.269531 95.332031 200.640625 94.019531 200.121094 C 91.734375 199.210938 88.910156 198.636719 85.46875 198.472656 C 46.039062 196.597656 30.273438 196.679688 36.433594 174.320312 C 40.285156 160.339844 35.398438 154.113281 31.191406 151.410156 C 29.148438 150.101562 28.988281 147.15625 30.8125 145.546875 L 37.804688 139.398438 L 28.664062 137.046875 C 24.976562 136.105469 22.980469 132.085938 24.496094 128.59375 C 26.355469 124.308594 27.453125 119.136719 23.199219 117.261719 C 19 115.402344 11.515625 112.949219 5.535156 111.085938 C 1.308594 109.769531 -0.214844 104.582031 2.613281 101.1875 C 10.128906 92.1875 22.722656 76.402344 29.675781 63.839844 C 31.789062 60.03125 33.378906 56.523438 34.148438 53.585938 C 37.460938 41.007812 30.101562 18.609375 26.492188 1.40625 C 26.488281 1.398438 26.488281 1.390625 26.488281 1.382812 C 26.492188 1.382812 26.496094 1.382812 26.496094 1.382812 L 52.816406 34.140625 C 68.761719 53.984375 74.089844 80.328125 67.101562 104.808594 L 62.15625 122.128906 C 53.265625 153.273438 70.414062 185.914062 101.105469 196.265625 C 108.675781 199.429688 112.917969 206.65625 112.917969 214.046875 Z M 112.917969 214.046875 " fill-opacity="1" fill-rule="nonzero"/></g></g></g><path fill="#ff66c4" d="M 127.019531 315.121094 C 124.734375 314.210938 121.910156 313.636719 118.46875 313.472656 C 79.039062 311.597656 63.273438 311.679688 69.433594 289.320312 C 73.285156 275.339844 68.398438 269.113281 64.191406 266.410156 C 62.148438 265.101562 61.988281 262.15625 63.8125 260.546875 L 70.804688 254.398438 L 61.664062 252.046875 C 57.976562 251.105469 55.980469 247.085938 57.496094 243.59375 C 59.355469 239.308594 60.453125 234.136719 56.199219 232.261719 C 52 230.402344 44.515625 227.949219 38.535156 226.085938 C 34.308594 224.769531 32.785156 219.582031 35.613281 216.1875 C 43.128906 207.1875 55.722656 191.402344 62.675781 178.839844 C 73.511719 193.175781 79.664062 210.671875 80.019531 228.902344 L 80.394531 247.902344 C 80.90625 273.886719 95.25 297.625 118.011719 310.160156 Z M 127.019531 315.121094 " fill-opacity="1" fill-rule="nonzero"/><g mask="url(#def89f2033)"><g transform="matrix(1, 0, 0, 1, 150, 28)"><g clip-path="url(#e35670f1b3)"><g clip-path="url(#1595214f92)"><path fill="#ff66c4" d="M 159.347656 133.261719 L 155.007812 90.390625 C 158.597656 89.476562 161.253906 86.230469 161.253906 82.355469 C 161.253906 77.902344 157.753906 74.28125 153.351562 74.0625 L 150.945312 50.265625 C 153.0625 49.292969 154.488281 47.074219 154.269531 44.546875 C 154.039062 41.835938 151.859375 39.617188 149.164062 39.339844 C 147.730469 39.191406 146.394531 39.570312 145.320312 40.304688 C 139.449219 36.347656 128.203125 29.25 113.480469 22.171875 C 112.34375 21.628906 111.171875 21.078125 109.964844 20.519531 C 110.367188 19.050781 110.414062 17.4375 109.824219 15.730469 C 108.722656 12.539062 105.808594 10.226562 102.4375 10.035156 C 99.191406 9.851562 96.324219 11.539062 94.804688 14.117188 C 76.113281 6.941406 52.824219 0.640625 28.25 0.398438 C 20.128906 0.328125 11.925781 1.121094 3.683594 2.761719 C 3.433594 3.625 3.195312 4.503906 2.96875 5.382812 C 10.972656 3.726562 19.417969 2.789062 28.222656 2.882812 C 51.996094 3.117188 74.710938 9.074219 93.871094 16.460938 C 93.773438 16.871094 93.710938 17.292969 93.679688 17.726562 L 51.28125 20.992188 C 50.597656 18.957031 48.683594 17.488281 46.421875 17.488281 C 44.558594 17.488281 42.933594 18.488281 42.035156 19.980469 L 2.34375 7.933594 C 2.15625 8.734375 1.980469 9.546875 1.820312 10.363281 L 41.3125 22.355469 C 41.308594 22.441406 41.304688 22.523438 41.304688 22.609375 C 41.304688 24.914062 42.820312 26.855469 44.90625 27.503906 L 43.808594 47.113281 C 41.867188 47.277344 40.117188 48.105469 38.789062 49.375 L 1.390625 12.597656 C 1.214844 13.601562 1.054688 14.605469 0.917969 15.617188 L 37.253906 51.347656 C 36.589844 52.546875 36.207031 53.921875 36.207031 55.382812 C 36.207031 57.644531 37.113281 59.691406 38.578125 61.191406 L 28.558594 73.816406 C 29.269531 74.242188 29.992188 74.664062 30.734375 75.082031 L 40.5625 62.695312 C 41.734375 63.332031 43.082031 63.695312 44.519531 63.695312 C 46.027344 63.695312 47.445312 63.28125 48.664062 62.574219 L 76.359375 89.808594 C 75.914062 90.316406 75.492188 90.84375 75.101562 91.390625 C 89.167969 97.683594 100.257812 107.289062 108.945312 119.019531 C 109.789062 118.105469 110.554688 117.113281 111.230469 116.058594 L 151.179688 138.59375 C 150.847656 139.476562 150.65625 140.425781 150.640625 141.417969 L 123.394531 145.125 C 123.710938 145.914062 124.03125 146.707031 124.339844 147.503906 L 150.972656 143.882812 C 151.460938 145.558594 152.464844 147.011719 153.804688 148.070312 C 150.523438 153.882812 145.585938 162.71875 140.238281 172.621094 C 139.859375 172.535156 139.464844 172.480469 139.054688 172.480469 C 138.113281 172.480469 137.230469 172.738281 136.476562 173.1875 L 130.632812 167.210938 C 131.035156 168.785156 131.425781 170.367188 131.792969 171.953125 C 132.710938 175.902344 133.519531 179.898438 134.226562 183.910156 C 134.46875 185.257812 134.691406 186.609375 134.90625 187.964844 C 135.851562 186.15625 136.804688 184.34375 137.75 182.550781 C 138.761719 182.820312 139.882812 182.820312 141.074219 182.285156 C 142.804688 181.503906 144.039062 179.84375 144.164062 177.953125 C 144.277344 176.28125 143.582031 174.777344 142.445312 173.765625 C 147.769531 163.898438 152.691406 155.09375 155.960938 149.296875 C 157.152344 149.757812 158.472656 149.960938 159.859375 149.804688 C 163.90625 149.347656 167.097656 145.925781 167.246094 141.855469 C 167.410156 137.265625 163.847656 133.480469 159.347656 133.261719 Z M 148.5 50.789062 L 150.878906 74.3125 C 149.535156 74.660156 148.316406 75.335938 147.324219 76.25 L 121.820312 55.777344 C 122.121094 55.125 122.296875 54.402344 122.296875 53.636719 C 122.296875 53.496094 122.285156 53.363281 122.277344 53.226562 L 143.296875 47.375 C 144.183594 49.375 146.179688 50.773438 148.5 50.789062 Z M 108.925781 22.84375 C 125.011719 30.277344 137.273438 37.925781 143.597656 42.152344 C 143.113281 42.96875 142.832031 43.917969 142.808594 44.929688 L 121.472656 50.867188 C 120.5625 49.453125 118.976562 48.519531 117.171875 48.519531 C 116.84375 48.519531 116.519531 48.550781 116.210938 48.613281 L 106.320312 25.398438 C 107.363281 24.75 108.257812 23.875 108.925781 22.84375 Z M 46.285156 47.265625 L 47.386719 27.640625 C 49.476562 27.242188 51.109375 25.574219 51.46875 23.46875 L 93.871094 20.203125 C 94 20.773438 94.195312 21.324219 94.433594 21.84375 L 51.269531 50.554688 C 50.09375 48.910156 48.332031 47.710938 46.285156 47.265625 Z M 92.808594 82.355469 C 87.144531 82.355469 81.984375 84.503906 78.101562 88.03125 L 50.617188 61.011719 C 51.984375 59.527344 52.824219 57.554688 52.824219 55.382812 C 52.824219 54.472656 52.671875 53.601562 52.40625 52.785156 L 95.8125 23.910156 C 96.878906 25.082031 98.273438 25.945312 99.851562 26.359375 L 93.890625 82.382812 C 93.527344 82.363281 93.171875 82.355469 92.808594 82.355469 Z M 96.355469 82.644531 L 102.324219 26.621094 C 102.910156 26.597656 103.484375 26.507812 104.035156 26.367188 L 113.953125 49.660156 C 112.792969 50.597656 112.050781 52.027344 112.050781 53.636719 C 112.050781 55.105469 112.675781 56.429688 113.667969 57.363281 L 101.050781 83.964844 C 99.5625 83.359375 97.988281 82.914062 96.355469 82.644531 Z M 103.296875 85.027344 L 115.839844 58.578125 C 116.265625 58.691406 116.710938 58.761719 117.171875 58.761719 C 118.335938 58.761719 119.40625 58.367188 120.269531 57.714844 L 145.765625 78.183594 C 145.050781 79.414062 144.636719 80.835938 144.636719 82.355469 C 144.636719 82.917969 144.695312 83.464844 144.800781 83.996094 L 112.921875 95.601562 C 110.984375 91.089844 107.574219 87.367188 103.296875 85.027344 Z M 152.40625 136.433594 L 112.457031 113.898438 C 113.886719 110.984375 114.699219 107.710938 114.699219 104.242188 C 114.699219 102.050781 114.371094 99.929688 113.769531 97.9375 L 145.648438 86.332031 C 147 88.800781 149.5625 90.496094 152.535156 90.640625 L 156.875 133.507812 C 155.078125 133.96875 153.515625 135.011719 152.40625 136.433594 Z M 152.40625 136.433594 " fill-opacity="1" fill-rule="nonzero"/></g></g></g></g></svg>